<?xml version="1.0" encoding="utf-8"?>
<!-- Generator: Adobe Illustrator 23.0.1, SVG Export Plug-In . SVG Version: 6.00 Build 0)  -->
<svg version="1.1" id="圖層_1" xmlns="http://www.w3.org/2000/svg" xmlns:xlink="http://www.w3.org/1999/xlink" x="0px" y="0px"
	 viewBox="0 0 16.1284 14.331" style="enable-background:new 0 0 16.1284 14.331;" xml:space="preserve">
<style type="text/css">
	.st0{fill:#FFFFFF;}
</style>
<path class="st0" d="M10.7527,7.1659l4.0334-4.0334c0.5913-0.5917,0.5913-1.5598,0-2.1511l-0.5379-0.5378
	c-0.5913-0.5913-1.5594-0.5913-2.1511,0L8.0649,4.4781L4.0311,0.4435c-0.5917-0.5905-1.5594-0.5905-2.1515,0L1.3426,0.9814
	c-0.5917,0.5913-0.5917,1.5594,0,2.1511l4.0322,4.0326l-4.0322,4.0334c-0.5917,0.5921-0.5917,1.5602,0,2.1515l0.5371,0.5378
	c0.5921,0.5909,1.5598,0.5909,2.1515,0L8.0649,9.854l4.0322,4.0338c0.5917,0.5909,1.5598,0.5909,2.1511,0l0.5379-0.5378
	c0.5913-0.5913,0.5913-1.5594,0-2.1515L10.7527,7.1659z"/>
<g>
</g>
<g>
</g>
<g>
</g>
<g>
</g>
<g>
</g>
<g>
</g>
<g>
</g>
<g>
</g>
<g>
</g>
<g>
</g>
<g>
</g>
<g>
</g>
<g>
</g>
<g>
</g>
<g>
</g>
</svg>
